<svg xmlns:dc="http://purl.org/dc/elements/1.1/" xmlns:cc="http://creativecommons.org/ns#" xmlns:rdf="http://www.w3.org/1999/02/22-rdf-syntax-ns#" xmlns:svg="http://www.w3.org/2000/svg" xmlns="http://www.w3.org/2000/svg" version="1.1" viewBox="0 0 47.999997 60" x="0px" y="0px"><path d="m 23.999997,0.0039099 c -3.635,0 -7.270999,1.31329 -10.134799,3.9375 C 8.2507978,9.08609 7.4167978,17.61545 11.839798,23.75586 c 2.0585,2.65139 3.1602,5.90504 3.1602,9.24414 0,0.79526 0.3166,1.55876 0.8789,2.12109 0.5623,0.56234 1.3258,0.87891 2.1211,0.87891 l 11.999999,0 c 0.7953,0 1.5588,-0.31657 2.1211,-0.87891 0.5623,-0.56233 0.8789,-1.32583 0.8789,-2.12109 0,-3.3391 1.1134,-6.58494 3.1719,-9.23633 4.423,-6.14041 3.5773,-14.67758 -2.0371,-19.8222601 -2.8639,-2.62421 -6.4998,-3.9375 -10.1348,-3.9375 z m 0,1.99218 c 3.1475,0 6.2951,1.13997 8.7832,3.41993 4.9763,4.5599001 5.6402,12.1432901 1.5313,17.4980401 -2.1482,2.92863 -3.3145,6.45817 -3.3145,10.08594 0,0.2656 -0.1052,0.51922 -0.293,0.70703 -0.1878,0.18781 -0.4414,0.29297 -0.707,0.29297 l -11.999999,0 c -0.2656,0 -0.5192,-0.10516 -0.707,-0.29297 -0.1878,-0.18781 -0.293,-0.44143 -0.293,-0.70703 0,-3.62777 -1.1742,-7.15131 -3.3223,-10.08008 -4.1088,-5.35475 -3.4372,-12.944 1.5391,-17.5039001 2.4881,-2.27996 5.635699,-3.41993 8.783199,-3.41993 z m 0,3.00196 c -0.5523,1e-5 -1,0.44773 -1,1 0,0.55228 0.4477,1 1,1 2.4868,0 4.8299,1.15596 6.3438,3.1289001 0.3362,0.43814 0.9642,0.52175 1.4023,0.18555 0.4381,-0.33621 0.5198,-0.96419 0.1836,-1.4023401 -1.8914,-2.46492 -4.8227,-3.91211 -7.9297,-3.91211 z m 8.8262,6.6777301 c -0.1287,-0.0179 -0.2631,-0.0103 -0.3965,0.0254 -0.5335,0.14294 -0.85,0.69115 -0.707,1.22461 0.1808,0.67501 0.2734,1.37149 0.2734,2.07031 0,0.55228 0.4477,1 1,1 0.5523,0 1,-0.44772 1,-1 0,-0.8736 -0.1137,-1.74405 -0.3398,-2.58789 -0.1072,-0.40009 -0.4441,-0.67868 -0.8301,-0.73242 z M 17.980498,37.98633 c -0.5515,0.009 -0.992,0.46214 -0.9844,1.01367 l 0,5 c 0,0.77944 0.5689,1.7398 1.1523,2.24609 0.6665,0.57838 1.5395,1.00787 2.572299,1.30664 2.0657,0.59755 4.4851,0.59755 6.5508,0 1.0328,-0.29877 1.9058,-0.72826 2.5723,-1.30664 C 30.431497,45.73937 30.999997,45 30.999997,44 l 0,-5 c 0,-0.32646 -0.054,-0.49125 -0.293,-0.7207 -0.19,-0.18182 -0.4089,-0.2793 -0.707,-0.2793 -0.049,10e-4 -8,0 -8,0 -1.3523,-0.0191 -1.3523,2.01912 0,2 l 7,0 0,4 c 0,0.1817 -0.094,0.41637 -0.4629,0.73633 -0.3687,0.31995 -0.9942,0.65668 -1.8164,0.89453 -1.6444,0.4757 -3.797,0.4757 -5.4414,0 -0.8222,-0.23785 -1.447699,-0.57458 -1.816399,-0.89453 -0.3687,-0.31996 -0.4629,-0.55463 -0.4629,-0.73633 l 6.999999,0 c 1.3523,0.0191 1.3523,-2.01912 0,-2 l -6.999999,0 0,-3 c 0.01,-0.56377 -0.4519,-1.02247 -1.0156,-1.01367 z" style="color:#000000;font-style:normal;font-variant:normal;font-weight:normal;font-stretch:normal;font-size:medium;line-height:normal;font-family:sans-serif;text-indent:0;text-align:start;text-decoration:none;text-decoration-line:none;text-decoration-style:solid;text-decoration-color:#000000;letter-spacing:normal;word-spacing:normal;text-transform:none;direction:ltr;block-progression:tb;writing-mode:lr-tb;baseline-shift:baseline;text-anchor:start;white-space:normal;clip-rule:nonzero;display:inline;overflow:visible;visibility:visible;opacity:1;isolation:auto;mix-blend-mode:normal;color-interpolation:sRGB;color-interpolation-filters:linearRGB;solid-color:#000000;solid-opacity:1;fill:#000000;fill-opacity:1;fill-rule:nonzero;stroke:none;stroke-width:2;stroke-linecap:butt;stroke-linejoin:round;stroke-miterlimit:4;stroke-dasharray:none;stroke-dashoffset:0;stroke-opacity:1;marker:none;color-rendering:auto;image-rendering:auto;shape-rendering:auto;text-rendering:auto;enable-background:accumulate"/><text x="0" y="63" fill="#000000" font-size="5px" font-weight="bold" font-family="'Helvetica Neue', Helvetica, Arial-Unicode, Arial, Sans-serif">Created by ICONCRAFT</text><text x="0" y="68" fill="#000000" font-size="5px" font-weight="bold" font-family="'Helvetica Neue', Helvetica, Arial-Unicode, Arial, Sans-serif">from the Noun Project</text></svg>